<svg height="24" viewBox="0 0 24 24" width="24" xmlns="http://www.w3.org/2000/svg"><path d="m10.8223929.33322763c.3774324.20361792.6990447.49113431.9390073.83823546l.1130576.17840341 6.775225 11.7044553c.7417108 1.2813331.2667613 2.9014048-1.0520648 3.6128876-.346935.1871651-.7309301.2979936-1.1249014.3258391l-.1976917.0069768h-.7309639c-.2761424 0-.5-.2238576-.5-.5 0-.2454599.1768751-.4496084.4101243-.4919443l.0898757-.0080557h.7309639c.297231 0 .5892345-.073422.8477972-.2129119.7802702-.4209416 1.0842496-1.33335.7306618-2.0984537l-.0692606-.1333592-6.7752251-11.70445525c-.1542534-.2664785-.3830503-.48735643-.6614011-.63752164-.78986917-.42612009-1.77723434-.19201184-2.27447494.50900528l-.08252059.12851636-6.77522505 11.70445525c-.14137282.2442269-.21537652.5185229-.21537652.7971456 0 .8582355.6895136 1.5690543 1.57522433 1.6415l.14935051.0060792h8.58187746c.2761424 0 .5.2238576.5.5 0 .2454599-.1768752.4496084-.4101244.4919443l-.0898756.0080557h-8.58187746c-1.50087703 0-2.72457484-1.1813439-2.72457484-2.6475792 0-.3899514.08861204-.7741008.25833245-1.1253606l.09158449-.1727637 6.77522505-11.7044553c.73575623-1.27104647 2.38858843-1.72263855 3.69725091-1.01663887zm-1.3123929 11.70373887c.504 0 .924.3952941.924.8696471 0 .4611764-.42.8564705-.924.8564705-.49 0-.91-.3952941-.91-.8564705 0-.474353.42-.8696471.91-.8696471zm.546-7.53694118v6.21929408h-1.078v-6.21929408z" fill="#56707a" transform="translate(2.5 3.499975)"/></svg>