<svg width="34" height="24" viewBox="0 0 34 24" fill="none" xmlns="http://www.w3.org/2000/svg">
<path fill-rule="evenodd" clip-rule="evenodd" d="M0 3C0 1.34315 1.34315 0 3 0H31C32.6569 0 34 1.34315 34 3V21C34 22.6569 32.6569 24 31 24H3C1.34315 24 0 22.6569 0 21V3Z" fill="#016FD0"/>
<path fill-rule="evenodd" clip-rule="evenodd" d="M6.60449 18.1514V12.7979H12.2311L12.8348 13.5907L13.4584 12.7979H33.8817V17.7822C33.8817 17.7822 33.3476 18.1461 32.7299 18.1514H21.4211L20.7405 17.3075V18.1514H18.5101V16.7109C18.5101 16.7109 18.2055 16.9119 17.5468 16.9119H16.7877V18.1514H13.4107L12.8079 17.3416L12.1958 18.1514H6.60449Z" fill="white"/>
<path fill-rule="evenodd" clip-rule="evenodd" d="M0.0339355 8.76279L1.30276 5.78271H3.49707L4.21715 7.45203V5.78271H6.94487L7.37353 6.98925L7.7891 5.78271H20.0338V6.38928C20.0338 6.38928 20.6775 5.78271 21.7353 5.78271L25.7083 5.7967L26.4159 7.44417V5.78271H28.6986L29.3269 6.72905V5.78271H31.6305V11.1363H29.3269L28.7248 10.1869V11.1363H25.371L25.0337 10.2924H24.1321L23.8003 11.1363H21.5259C20.6156 11.1363 20.0338 10.5421 20.0338 10.5421V11.1363H16.6045L15.9239 10.2924V11.1363H3.172L2.83496 10.2924H1.93622L1.60156 11.1363H0.0339355L0.0339355 8.76279Z" fill="white"/>
<path fill-rule="evenodd" clip-rule="evenodd" d="M0.0405273 10.4512L1.7519 6.44263H3.04934L4.75907 10.4512H3.62034L3.30621 9.64852H1.47049L1.15472 10.4512H0.0405273ZM2.94463 8.77823L2.38508 7.37555L1.82389 8.77823H2.94463Z" fill="#016FD0"/>
<path fill-rule="evenodd" clip-rule="evenodd" d="M4.87671 10.4507V6.44214L6.46004 6.44806L7.38096 9.03256L8.27982 6.44214H9.85049V10.4507H8.85573V7.49703L7.80127 10.4507H6.92887L5.87146 7.49703V10.4507H4.87671Z" fill="#016FD0"/>
<path fill-rule="evenodd" clip-rule="evenodd" d="M10.5312 10.4507V6.44214H13.7773V7.3388H11.5365V8.02448H13.7249V8.8684H11.5365V9.58045H13.7773V10.4507H10.5312Z" fill="#016FD0"/>
<path fill-rule="evenodd" clip-rule="evenodd" d="M14.3533 10.4512V6.44263H16.5669C17.3004 6.44263 17.9576 6.89957 17.9576 7.74312C17.9576 8.46423 17.4035 8.92871 16.8663 8.97438L18.1752 10.4512H16.9596L15.7669 9.02712H15.348V10.4512H14.3533ZM16.4851 7.33929H15.348V8.1832H16.4998C16.6992 8.1832 16.9563 8.02756 16.9563 7.76125C16.9563 7.55424 16.7579 7.33929 16.4851 7.33929Z" fill="#016FD0"/>
<path fill-rule="evenodd" clip-rule="evenodd" d="M19.3795 10.4507H18.3638V6.44214H19.3795V10.4507Z" fill="#016FD0"/>
<path fill-rule="evenodd" clip-rule="evenodd" d="M21.7878 10.4507H21.5686C20.5078 10.4507 19.8638 9.60881 19.8638 8.46292C19.8638 7.28873 20.5006 6.44214 21.8402 6.44214H22.9397V7.39154H21.8C21.2562 7.39154 20.8716 7.81908 20.8716 8.47281C20.8716 9.24913 21.3114 9.57518 21.9449 9.57518H22.2067L21.7878 10.4507Z" fill="#016FD0"/>
<path fill-rule="evenodd" clip-rule="evenodd" d="M22.2407 10.4512L23.9521 6.44263H25.2495L26.9593 10.4512H25.8205L25.5064 9.64852H23.6707L23.3549 10.4512H22.2407ZM25.1448 8.77823L24.5853 7.37555L24.0241 8.77823H25.1448Z" fill="#016FD0"/>
<path fill-rule="evenodd" clip-rule="evenodd" d="M27.0757 10.4507V6.44214H28.3404L29.9552 8.9607V6.44214H30.95V10.4507H29.7262L28.0704 7.86625V10.4507H27.0757Z" fill="#016FD0"/>
<path fill-rule="evenodd" clip-rule="evenodd" d="M7.28516 17.4656V13.457H10.5312V14.3537H8.29038V15.0394H10.4788V15.8833H8.29038V16.5953H10.5312V17.4656H7.28516Z" fill="#016FD0"/>
<path fill-rule="evenodd" clip-rule="evenodd" d="M23.1909 17.4656V13.457H26.437V14.3537H24.1961V15.0394H26.3741V15.8833H24.1961V16.5953H26.437V17.4656H23.1909Z" fill="#016FD0"/>
<path fill-rule="evenodd" clip-rule="evenodd" d="M10.6573 17.4656L12.2377 15.4861L10.6196 13.457H11.8729L12.8366 14.7114L13.8035 13.457H15.0077L13.4108 15.4613L14.9942 17.4656H13.7412L12.8055 16.2311L11.8925 17.4656H10.6573Z" fill="#016FD0"/>
<path fill-rule="evenodd" clip-rule="evenodd" d="M15.1123 17.4664V13.4578H17.3096C18.2112 13.4578 18.7379 14.0432 18.7379 14.8061C18.7379 15.727 18.0664 16.2005 17.1803 16.2005H16.1332V17.4664H15.1123ZM17.236 14.3643H16.1332V15.2873H17.2327C17.5232 15.2873 17.7268 15.0934 17.7268 14.8258C17.7268 14.541 17.5222 14.3643 17.236 14.3643Z" fill="#016FD0"/>
<path fill-rule="evenodd" clip-rule="evenodd" d="M19.1699 17.4656V13.457H21.3836C22.1171 13.457 22.7743 13.914 22.7743 14.7575C22.7743 15.4786 22.2202 15.9431 21.683 15.9888L22.9919 17.4656H21.7762L20.5835 16.0415H20.1647V17.4656H19.1699ZM21.3018 14.3537H20.1647V15.1976H21.3165C21.5159 15.1976 21.773 15.042 21.773 14.7756C21.773 14.5686 21.5746 14.3537 21.3018 14.3537Z" fill="#016FD0"/>
<path fill-rule="evenodd" clip-rule="evenodd" d="M26.8978 17.4656V16.5953H28.8886C29.1832 16.5953 29.3107 16.435 29.3107 16.2591C29.3107 16.0906 29.1836 15.9202 28.8886 15.9202H27.989C27.207 15.9202 26.7715 15.4402 26.7715 14.7196C26.7715 14.0769 27.1703 13.457 28.3323 13.457H30.2695L29.8506 14.359H28.1753C27.855 14.359 27.7564 14.5283 27.7564 14.6899C27.7564 14.8561 27.8783 15.0394 28.1229 15.0394H29.0653C29.937 15.0394 30.3153 15.5375 30.3153 16.1899C30.3153 16.8912 29.8938 17.4656 29.0179 17.4656H26.8978Z" fill="#016FD0"/>
<path fill-rule="evenodd" clip-rule="evenodd" d="M30.5487 17.4656V16.5953H32.5395C32.8341 16.5953 32.9616 16.435 32.9616 16.2591C32.9616 16.0906 32.8345 15.9202 32.5395 15.9202H31.6399C30.8579 15.9202 30.4224 15.4402 30.4224 14.7196C30.4224 14.0769 30.8212 13.457 31.9832 13.457H33.9204L33.5015 14.359H31.8261C31.5059 14.359 31.4073 14.5283 31.4073 14.6899C31.4073 14.8561 31.5291 15.0394 31.7738 15.0394H32.7162C33.5879 15.0394 33.9662 15.5375 33.9662 16.1899C33.9662 16.8912 33.5447 17.4656 32.6687 17.4656H30.5487Z" fill="#016FD0"/>
</svg>
