<svg height="24" viewBox="0 0 24 24" width="24" xmlns="http://www.w3.org/2000/svg"><path d="m14.2164885 2.20115639c.8527835.87205174 1.4573417 1.92210068 1.7801323 3.06506446.1573425.55713145.2461162 1.13117319.2649115 1.70917141.0017978.05528516-.0056794.10873896-.0210462.15890269 1.0437409.60406592 1.7418932 1.68115634 1.7418932 2.91596885 0 1.8251011-1.5251834 3.3056427-3.439907 3.423964-.2248816 1.3749972-1.3945061 2.4384846-2.8307292 2.5206593l-.1792155.0051129h-2.5499111c-.27614238 0-.5-.2210612-.5-.493754 0-.0676814.01378994-.1321821.0387466-.1909119-.73100649-.3310134-1.23898377-1.060697-1.23898377-1.9075428 0-1.1589446.95139491-2.0984547 2.125-2.0984547 1.17360507 0 2.12499997.9395101 2.12499997 2.0984547 0 .6441221-.2938813 1.2204621-.7564584 1.605398l.7566067-.0006974c1.1322367 0 2.0500889-.9063548 2.0500889-2.0243916 0-.2726928.2238576-.493754.5-.493754.0342922 0 .0677781.0034091.1001291.0099027l.1121337-.0099027c1.4916798 0 2.6875-1.1021567 2.6875-2.4440825 0-1.29031338-1.105603-2.35894659-2.5167473-2.4392404l-.2243623-.0047668c-.2454225.00423463-.4464498.18239556-.4847044.41342626l-.0064843.08887835.0632897 3.57694939c.0048243.2726512-.2150884.4975406-.4911886.5023046-.2454224.0042346-.4526298-.1668824-.4990342-.3964524l-.0096245-.0886004-.0632898-3.57694935c-.0136213-.76983872.569982-1.4127534 1.329248-1.49764187l.144318-.00927197.0710797-.00022606c.3290982 0 .6484434.04020557.9525425.11569424l.0146257.27271923c-.0162313-.49914762-.0928763-.99476138-.2286684-1.47558547-.2784224-.98586125-.7996033-1.89109315-1.5362304-2.644364-2.4169901-2.47160094-6.40532191-2.54034789-8.90818844-.1535506-.81785629.77992859-1.39399114 1.74275711-1.69211716 2.80011065-.11195837.39707901-.18366345.80424242-.21435539 1.2150854.23975892-.06384068.48937944-.1051069.74606934-.12174997l.25894295-.00835948.07107973.00022606.14431801.00927197c.71181189.07958294 1.26923272.64961861 1.32490616 1.35488975l.0043418.14275212-.06328972 3.57694935-.00962458.0886004c-.04640438.22957-.25361173.400687-.49903416.3964524-.24542242-.0042346-.44644973-.1823956-.48470434-.4134263l-.00648431-.0888783.06328972-3.57694939-.0064843-.08887835c-.03347279-.20215186-.19156842-.36382531-.39498317-.40392192l-.08972118-.00950434-.22436237.0047668c-1.4111443.08029381-2.51674729 1.14892702-2.51674729 2.4392404 0 1.2903133 1.10560299 2.3589465 2.51674729 2.4392403l.17075271.0048422.10341381.007955c.23324921.0418071.41012437.2434054.41012437.485799 0 .2423937-.17687516.4439919-.41012437.485799l-.08987563.0079551-.20870545-.0047328c-1.9392338-.0942682-3.49233273-1.58513-3.49233273-3.4268578 0-1.21216994.6727833-2.272349 1.68563548-2.88238868-.01328684-.04391689-.01926644-.09125906-.01802684-.14007891.01510172-.59475638.10427637-1.1858257.26587945-1.75897789.34559065-1.22569479 1.01392853-2.34261173 1.9608138-3.24558564 2.90014693-2.765654 7.52154731-2.68599484 10.32218661.17792371zm-4.80910917 10.09568831c-.62132034 0-1.125.4973877-1.125 1.1109466 0 .6135588.50367966 1.1109466 1.125 1.1109466.62132037 0 1.12499997-.4973878 1.12499997-1.1109466 0-.6135589-.5036796-1.1109466-1.12499997-1.1109466z" fill="#56707a" transform="translate(3.517621 3.544949)"/></svg>