<svg height="24" viewBox="0 0 24 24" width="24" xmlns="http://www.w3.org/2000/svg"><path d="m13.8333333 0c1.6975511 0 3.0691137 1.42175549 3.1616858 3.1960812l.0049809.19140674v6.73747186c0 1.7981455-1.3130264 3.281906-2.986077 3.3820963l-.1805897.0053916h-2.6141493c-.2761423 0-.5-.2238576-.5-.5 0-.2454598.1768752-.4496083.4101244-.4919443l.0898756-.0080557h2.6141493c1.1378683 0 2.0846951-.9738943 2.1616218-2.2230508l.0050449-.1644371v-6.73747186c0-1.27177167-.8994156-2.29865653-2.0193883-2.38202233l-.1472784-.00546561h-10.66666663c-1.13786828 0-2.08469504.97389437-2.16162181 2.22305087l-.00504486.16443707v6.73747186c0 1.2717717.89941559 2.2986565 2.01938827 2.3820223l.1472784.0054656h2.9224086l2.15828177 2.3645647c.12947738.1418525.31652617.1610999.46170442.0572044l.05936583-.0520676c.1894706-.2008868.50591779-.2101414.70680458-.0206708s.21014144.5059178.02067084.7068046c-.51496413.5459923-1.33632342.5731155-1.8818748.0869584l-.10526033-.1040735-1.86176758-2.0396486-2.48033333.0009284c-1.69755104 0-3.06911371-1.4217555-3.16168575-3.1960812l-.00498092-.1914067v-6.73747186c0-1.79814554 1.31302643-3.28190605 2.98607702-3.38209625l.18058965-.00539169zm-1.3697916 7.91551932c.2761423 0 .5.22385763.5.5 0 .24545989-.1768752.44960838-.4101244.49194434l-.0898756.00805566h-7.4635417c-.27614237 0-.5-.22385762-.5-.5 0-.24545988.17687516-.44960837.41012437-.49194433l.08987563-.00805567zm0-3c.2761423 0 .5.22385763.5.5 0 .24545989-.1768752.44960838-.4101244.49194434l-.0898756.00805566h-7.4635417c-.27614237 0-.5-.22385762-.5-.5 0-.24545988.17687516-.44960837.41012437-.49194433l.08987563-.00805567z" fill="#56707a" transform="translate(3.5 4.084481)"/></svg>