<svg height="24" viewBox="0 0 24 24" width="24" xmlns="http://www.w3.org/2000/svg"><path d="m11.7726248 3.54744194c.2454599 0 .4496084.17687516.4919443.41012436l.0080557.08987564-.000092 7.48999996 7.684.0005956c.2761424 0 .5.2238577.5.5 0 .2454599-.1768751.4496084-.4101243.4919444l-.0898757.0080556-7.684-.0005956.000092 7.3281819c0 .2761423-.2238576.5-.5.5-.2454599 0-.4496084-.1768752-.4919443-.4101244l-.0080557-.0898756-.000092-7.3281819-7.31599995.0005956c-.27614238 0-.5-.2238576-.5-.5 0-.2454598.17687516-.4496083.41012436-.4919443l.08987564-.0080557 7.31599995-.0005956.000092-7.48999996c0-.27614238.2238576-.5.5-.5z" fill="#56707a" transform="matrix(.70710678 -.70710678 .70710678 .70710678 -4.902441 12.00665)"/></svg>