<svg height="24" viewBox="0 0 24 24" width="24" xmlns="http://www.w3.org/2000/svg"><path d="m11 2.5c1.6568542 0 3 1.34314575 3 3v10c0 1.6568542-1.3431458 3-3 3h-8c-1.65685425 0-3-1.3431458-3-3v-10c0-1.65685425 1.34314575-3 3-3zm0 1h-8c-1.0543618 0-1.91816512.81587779-1.99451426 1.85073766l-.00548574.14926234v10c0 1.0543618.81587779 1.9181651 1.85073766 1.9945143l.14926234.0054857h8c1.0543618 0 1.9181651-.8158778 1.9945143-1.8507377l.0054857-.1492623v-10c0-1.0543618-.8158778-1.91816512-1.8507377-1.99451426zm-.9135385 10.5c.228391 0 .4135385.2238576.4135385.5 0 .2454599-.1462894.4496084-.3392044.4919443l-.0743341.0080557h-6.17292304c-.22839098 0-.41353846-.2238576-.41353846-.5 0-.2454599.14628936-.4496084.3392044-.4919443l.07433406-.0080557zm3.1628228-14c1.7342548 0 3.1499975 1.36649757 3.2455728 3.08653514l.0051427.18559643v9.24043853c0 .8943591-.3588773 1.732704-.9830807 2.3445112-.1972106.1932941-.5137771.1901192-.7070712-.0070914-.1932941-.1972105-.1901192-.5137771.0070913-.7070712.390622-.3828645.6314036-.8923716.6756538-1.4447496l.0074068-.185599v-9.24043853c0-1.20340593-.9262563-2.18701577-2.0967178-2.26689401l-.1539977-.00523756h-7.33524187c-.59225814 0-1.1473276.23129038-1.56470093.63889292-.19756092.19293598-.51412121.18918672-.70705719-.0083742-.19293599-.19756092-.18918673-.51412121.00837419-.70705719.55198247-.53906045 1.27432866-.86580761 2.05046448-.916522l.21291945-.00693953zm-3.1628228 10c.228391 0 .4135385.2238576.4135385.5 0 .2454599-.1462894.4496084-.3392044.4919443l-.0743341.0080557h-6.17292304c-.22839098 0-.41353846-.2238576-.41353846-.5 0-.2454599.14628936-.4496084.3392044-.4919443l.07433406-.0080557zm0-4c.228391 0 .4135385.22385763.4135385.5 0 .24545989-.1462894.44960837-.3392044.49194433l-.0743341.00805567h-6.17292304c-.22839098 0-.41353846-.22385763-.41353846-.5 0-.24545989.14628936-.44960837.3392044-.49194433l.07433406-.00805567z" fill="#56707a" transform="translate(4 3)"/></svg>