<svg width="57" height="57" viewBox="0 0 57 57" fill="none" xmlns="http://www.w3.org/2000/svg">
<g clip-path="url(#clip0_29_1575)">
<circle cx="28.5" cy="28.5" r="28.5" fill="#4C12A1"/>
<path fill-rule="evenodd" clip-rule="evenodd" d="M31.9976 18.2917C32.989 18.2917 33.8045 19.047 33.9025 20.015L33.9124 20.2112V21.2424L35.0607 21.2386L37.6742 21.2198L38.7962 21.244C42.2353 21.4163 43.9407 23.164 44.3973 26.0048C44.4915 26.5906 44.5275 27.0876 44.5381 27.8295L44.5418 28.5332V36.1591C44.5418 37.153 43.788 37.9704 42.8224 38.0687L42.6266 38.0787L41.6864 38.0783L41.6862 38.1167C41.6146 40.0662 39.9824 41.625 37.9793 41.625C35.9633 41.625 34.323 40.046 34.2713 38.0789L24.458 38.0787C24.037 38.0787 23.6958 37.7365 23.6958 37.3145C23.6958 36.9394 23.9654 36.6274 24.321 36.5627L24.458 36.5504L34.5683 36.55C35.1351 35.2512 36.449 34.3413 37.9793 34.3413C39.512 34.3413 40.8275 35.2539 41.393 36.5559L41.4592 36.5504H42.6266C42.8114 36.5504 42.9664 36.4216 43.0068 36.2488L43.0172 36.1591V28.6997L43.014 27.8785L42.9962 27.2634C42.9781 26.892 42.9461 26.5833 42.8922 26.2479C42.5585 24.172 41.4895 23.0043 39.0465 22.7925L38.72 22.7704L38.3935 22.7571L33.9151 22.7688L33.9157 33.7551C33.9157 34.1507 33.6151 34.4761 33.2299 34.5153L33.1518 34.5192C32.7562 34.5192 32.4309 34.2185 32.3918 33.8332L32.3879 33.7551V20.2112C32.3879 20.026 32.2595 19.8709 32.0871 19.8303L31.9976 19.82H18.2151C15.5089 19.82 14.1074 21.4915 13.9908 23.7941L13.983 24.0626V36.1591C13.983 36.3443 14.1114 36.4995 14.2838 36.54L14.3733 36.5504H15.1577C15.2105 36.5504 15.2621 36.5557 15.3119 36.566C15.8744 35.2586 17.1928 34.3413 18.7293 34.3413C20.7779 34.3413 22.4386 35.9718 22.4386 37.9831C22.4386 39.9945 20.7779 41.625 18.7293 41.625C16.7133 41.625 15.073 40.046 15.0213 38.0789L14.3733 38.0787C13.3819 38.0787 12.5664 37.3233 12.4684 36.3554L12.4585 36.1591V24.0568C12.482 20.9478 14.3439 18.457 17.8582 18.2996L18.2151 18.2917H31.9976ZM37.9793 36.1478C36.9469 36.1478 36.11 36.9695 36.11 37.9831C36.11 38.9968 36.9469 39.8185 37.9793 39.8185C39.0118 39.8185 39.8487 38.9968 39.8487 37.9831C39.8487 36.9695 39.0118 36.1478 37.9793 36.1478ZM16.86 37.9831C16.86 36.9695 17.6969 36.1478 18.7293 36.1478C19.7618 36.1478 20.5987 36.9695 20.5987 37.9831C20.5987 38.9968 19.7618 39.8185 18.7293 39.8185C17.6969 39.8185 16.86 38.9968 16.86 37.9831Z" fill="white"/>
<mask id="mask0_29_1575" style="mask-type:luminance" maskUnits="userSpaceOnUse" x="12" y="18" width="33" height="24">
<path fill-rule="evenodd" clip-rule="evenodd" d="M31.9976 18.2917C32.989 18.2917 33.8045 19.047 33.9025 20.015L33.9124 20.2112V21.2424L35.0607 21.2386L37.6742 21.2198L38.7962 21.244C42.2353 21.4163 43.9407 23.164 44.3973 26.0048C44.4915 26.5906 44.5275 27.0876 44.5381 27.8295L44.5418 28.5332V36.1591C44.5418 37.153 43.788 37.9704 42.8224 38.0687L42.6266 38.0787L41.6864 38.0783L41.6862 38.1167C41.6146 40.0662 39.9824 41.625 37.9793 41.625C35.9633 41.625 34.323 40.046 34.2713 38.0789L24.458 38.0787C24.037 38.0787 23.6958 37.7365 23.6958 37.3145C23.6958 36.9394 23.9654 36.6274 24.321 36.5627L24.458 36.5504L34.5683 36.55C35.1351 35.2512 36.449 34.3413 37.9793 34.3413C39.512 34.3413 40.8275 35.2539 41.393 36.5559L41.4592 36.5504H42.6266C42.8114 36.5504 42.9664 36.4216 43.0068 36.2488L43.0172 36.1591V28.6997L43.014 27.8785L42.9962 27.2634C42.9781 26.892 42.9461 26.5833 42.8922 26.2479C42.5585 24.172 41.4895 23.0043 39.0465 22.7925L38.72 22.7704L38.3935 22.7571L33.9151 22.7688L33.9157 33.7551C33.9157 34.1507 33.6151 34.4761 33.2299 34.5153L33.1518 34.5192C32.7562 34.5192 32.4309 34.2185 32.3918 33.8332L32.3879 33.7551V20.2112C32.3879 20.026 32.2595 19.8709 32.0871 19.8303L31.9976 19.82H18.2151C15.5089 19.82 14.1074 21.4915 13.9908 23.7941L13.983 24.0626V36.1591C13.983 36.3443 14.1114 36.4995 14.2838 36.54L14.3733 36.5504H15.1577C15.2105 36.5504 15.2621 36.5557 15.3119 36.566C15.8744 35.2586 17.1928 34.3413 18.7293 34.3413C20.7779 34.3413 22.4386 35.9718 22.4386 37.9831C22.4386 39.9945 20.7779 41.625 18.7293 41.625C16.7133 41.625 15.073 40.046 15.0213 38.0789L14.3733 38.0787C13.3819 38.0787 12.5664 37.3233 12.4684 36.3554L12.4585 36.1591V24.0568C12.482 20.9478 14.3439 18.457 17.8582 18.2996L18.2151 18.2917H31.9976ZM37.9793 36.1478C36.9469 36.1478 36.11 36.9695 36.11 37.9831C36.11 38.9968 36.9469 39.8185 37.9793 39.8185C39.0118 39.8185 39.8487 38.9968 39.8487 37.9831C39.8487 36.9695 39.0118 36.1478 37.9793 36.1478ZM16.86 37.9831C16.86 36.9695 17.6969 36.1478 18.7293 36.1478C19.7618 36.1478 20.5987 36.9695 20.5987 37.9831C20.5987 38.9968 19.7618 39.8185 18.7293 39.8185C17.6969 39.8185 16.86 38.9968 16.86 37.9831Z" fill="white"/>
</mask>
<g mask="url(#mask0_29_1575)">
</g>
</g>
<defs>
<clipPath id="clip0_29_1575">
<rect width="57" height="57" fill="white"/>
</clipPath>
</defs>
</svg>
