<svg height="24" viewBox="0 0 24 24" width="24" xmlns="http://www.w3.org/2000/svg"><path d="m13.6764706 0 .1830072.00519997c1.6960456.09664407 3.0446374 1.52858303 3.135627 3.30337682l.0048952.19142321v7l-.0048952.1914232c-.0909896 1.7747938-1.4395814 3.2067328-3.135627 3.3033768l-.1830072.0052h-10.35294119l-.19191746-.0057681c-1.39838323-.0842433-2.58967102-1.0834332-2.99027722-2.4814815-.07606643-.2654591.07746663-.5423202.34292568-.6183866.26545906-.0760664.54232017.0774666.61838659.3429257.28237029.9854249 1.10066702 1.6817859 2.05174822 1.7561179l.16913419.0065926h10.35294119l.1519981-.0052875c1.1539045-.0805112 2.087147-1.0710158 2.1661172-2.322499l.0054141-.1722135-.001-6.707-6.58508419 4.2881941c-.8068834.5252752-1.83797591.53784168-2.6532096.04679247l-.16003822-.10492202-5.60166799-3.98606455.001 4.45836133-.00805567.08987563c-.04233596.23324921-.24648444.41012437-.49194433.41012437s-.44960837-.17687516-.49194433-.41012437l-.00805567-.08987563v-4.99536133l.00489517-.19142321c.09098963-1.77479379 1.43958142-3.20673275 3.13562699-3.30337682l.18300725-.00519997zm0 1h-10.35294119l-.1519981.0052875c-1.00730454.07028254-1.84645424.83402292-2.09595159 1.85947615l6.10481433 4.34348946c.46023804.32745243 1.06112816.36636371 1.55584405.11163374l.13210465-.07675601 6.95790235-4.5295436.0973418.14776111c-.2499838-1.02150979-1.085293-1.78254448-2.0885643-1.85559361z" fill="#56707a" transform="translate(4 5)"/></svg>