<svg xmlns="http://www.w3.org/2000/svg" width="54" height="31" viewBox="0 0 54 31">
    <g fill="none" fill-rule="evenodd">
        <g fill-rule="nonzero">
            <g>
                <g>
                    <path fill="#50B848" d="M4.97 30.63c-2.54 0-4.6-2.08-4.6-4.63V5.01C.37 2.46 2.43.38 4.97.38h35.475c1.18 0 1.87.54 2.87 1.67l9.142 10.3c1.59 1.79 1.56 4.48-.07 6.24l-9.781 10.56c-.87.94-2.09 1.47-3.37 1.47H4.97v.01z" transform="translate(-40.000000, -103.000000) translate(40.000000, 103.000000)"/>
                    <path fill="#000" d="M40.445.75c1.05 0 1.65.48 2.59 1.55l9.142 10.3c1.46 1.65 1.44 4.12-.06 5.73L42.336 28.9c-.8.86-1.92 1.35-3.09 1.35H4.97C2.64 30.25.75 28.34.75 26V5.01C.75 2.67 2.65.76 4.99.76L40.445.75m.01-.75H4.991h-.02C2.23.01 0 2.24 0 5.01V26c0 2.76 2.23 5 4.97 5h34.265c1.38 0 2.7-.58 3.64-1.59l9.792-10.56c1.75-1.89 1.78-4.81.07-6.74L43.606 1.8c-.94-1.06-1.74-1.79-3.15-1.8z" transform="translate(-40.000000, -103.000000) translate(40.000000, 103.000000)"/>
                </g>
                <g>
                    <path fill="#FFF" d="M4.97 30.62c-2.54 0-4.6-2.08-4.6-4.63V5.01C.37 2.46 2.43.38 4.97.38h7.192v30.25H4.97v-.01z" transform="translate(-40.000000, -103.000000) translate(40.000000, 103.000000)"/>
                    <path fill="#000" d="M11.792.75v29.5H4.97C2.64 30.25.75 28.34.75 26V5.01c0-1.14.44-2.21 1.24-3.01.8-.8 1.86-1.24 3-1.24l6.8-.01m.75-.75h-7.55-.02C2.23 0 0 2.24 0 5.01V26c0 2.76 2.23 5 4.97 5h7.572V0z" transform="translate(-40.000000, -103.000000) translate(40.000000, 103.000000)"/>
                </g>
                <g fill="#000">
                    <path d="M6.815 7c.05.14.08.25.09.33.01.08 0 .14-.05.18-.04.04-.12.07-.23.08-.1.01-.25.02-.44.02-.2 0-.35 0-.46-.01-.11 0-.2-.02-.25-.03-.06-.02-.1-.05-.13-.08-.02-.03-.04-.07-.05-.12l-.5-1.52H1.973l-.48 1.48c-.02.05-.04.1-.06.14-.03.03-.07.06-.12.08-.06.03-.14.04-.24.05-.1.01-.24.01-.4.01-.18 0-.32-.01-.42-.02-.1-.01-.17-.04-.21-.08-.04-.05-.05-.11-.04-.19.01-.08.04-.19.09-.33L2.404.3c.02-.07.05-.12.08-.16.03-.04.08-.07.15-.09.07-.02.16-.03.28-.04.12-.01.28-.01.48-.01.23 0 .41 0 .54.01.14.01.24.02.32.04.08.02.13.05.16.1s.06.1.08.17L6.814 7zm-3.44-5.53L2.303 4.68h2.13l-1.06-3.21zM6.414 19.76c0 .11 0 .21-.01.29-.01.08-.02.15-.04.2-.02.05-.04.08-.06.1-.02.02-.06.03-.09.03-.05 0-.13-.04-.24-.11-.11-.07-.26-.15-.45-.23-.19-.08-.41-.16-.66-.23-.26-.07-.56-.1-.9-.1-.36 0-.69.06-.99.19-.29.13-.54.31-.75.54-.21.23-.37.51-.48.83-.11.32-.17.68-.17 1.08 0 .43.06.81.17 1.14.11.33.27.6.48.82.2.22.45.39.74.5.29.11.61.17.95.17.17 0 .34-.02.5-.06.17-.04.32-.1.46-.17V23h-1.42c-.07 0-.12-.04-.16-.13-.04-.09-.06-.24-.06-.45 0-.11 0-.2.01-.27s.02-.13.04-.18c.02-.04.04-.08.07-.1.03-.02.06-.03.09-.03h2.53c.06 0 .12.01.17.03.05.02.09.05.13.1.04.05.06.09.08.15.02.06.03.13.03.21v3c0 .12-.02.22-.06.31-.04.09-.12.16-.25.21-.12.05-.27.1-.46.15-.19.05-.38.1-.58.14-.2.04-.4.07-.6.09-.2.02-.41.03-.61.03-.6 0-1.13-.09-1.61-.26-.47-.17-.87-.42-1.2-.75-.33-.33-.58-.73-.75-1.2-.17-.47-.26-1.01-.26-1.6 0-.62.09-1.17.28-1.66.19-.49.45-.91.79-1.25.34-.34.75-.61 1.23-.79.48-.18 1.02-.27 1.61-.27.32 0 .62.02.89.07.27.04.5.1.7.16.2.06.36.13.5.21.13.07.22.14.28.19.06.05.09.13.11.23.01.08.02.23.02.42z" transform="translate(-40.000000, -103.000000) translate(40.000000, 103.000000) translate(3.196821, 2.350000)"/>
                    <g>
                        <path d="M2.35 7.86c-.34 0-.61-.28-.61-.61V.65c0-.34.27-.61.61-.61.34 0 .61.27.61.61v6.6c0 .34-.28.61-.61.61z" transform="translate(-40.000000, -103.000000) translate(40.000000, 103.000000) translate(3.196821, 2.350000) translate(1.023744, 9.530000)"/>
                        <path d="M4.09 2.98c-.16 0-.31-.06-.43-.18L2.35 1.48 1.04 2.8c-.24.24-.63.24-.86 0-.24-.24-.24-.63 0-.87L1.92.18c.24-.24.63-.24.86 0l1.74 1.75c.24.24.24.63 0 .87-.12.12-.28.18-.43.18z" transform="translate(-40.000000, -103.000000) translate(40.000000, 103.000000) translate(3.196821, 2.350000) translate(1.023744, 9.530000)"/>
                    </g>
                </g>
                <path fill="#FFF" stroke="#000" stroke-width=".5" d="M37.215 18.59c0 .55-.08 1.05-.23 1.49-.15.45-.36.84-.62 1.18-.27.34-.58.64-.95.88-.37.25-.78.45-1.22.61-.44.16-.92.28-1.42.35-.5.08-1.07.11-1.68.11h-4.091c-.26 0-.48-.08-.66-.23-.18-.16-.27-.41-.27-.76V8.75c0-.35.09-.6.27-.76.18-.16.4-.23.66-.23h3.86c.94 0 1.74.08 2.4.24.65.16 1.2.4 1.65.72.45.32.79.73 1.03 1.22s.36 1.08.36 1.74c0 .37-.05.73-.14 1.06-.1.33-.23.63-.42.9-.18.27-.41.51-.67.72-.27.21-.57.37-.91.5.44.08.84.22 1.21.42.37.2.69.46.96.77s.49.68.651 1.1c.15.44.23.91.23 1.44zm-4.04-6.51c0-.31-.05-.59-.14-.84-.1-.25-.24-.45-.43-.62-.19-.16-.43-.29-.72-.38-.29-.09-.68-.13-1.16-.13h-1.581v4.01h1.75c.45 0 .81-.05 1.08-.16s.49-.25.67-.44c.18-.19.31-.41.4-.66.08-.24.13-.51.13-.78zm.79 6.61c0-.36-.06-.68-.18-.96-.12-.28-.29-.52-.52-.71-.23-.19-.52-.34-.88-.44-.36-.1-.82-.16-1.39-.16h-1.851v4.4h2.26c.44 0 .8-.05 1.1-.14.3-.09.55-.23.77-.41.22-.18.39-.4.51-.67.12-.26.18-.56.18-.91z" transform="translate(-40.000000, -103.000000) translate(40.000000, 103.000000)"/>
            </g>
        </g>
    </g>
</svg>
