<svg width="31" height="31" viewBox="0 0 31 31" fill="none" xmlns="http://www.w3.org/2000/svg">
<rect x="0.620605" y="0.982422" width="29.9765" height="29.9765" fill="white" fill-opacity="0.01"/>
<path fill-rule="evenodd" clip-rule="evenodd" d="M9.3537 5.86577C9.30083 5.57444 9.04584 5.35352 8.73926 5.35352C8.39435 5.35352 8.11475 5.63312 8.11475 5.97803V25.9623L8.12481 26.0746C8.17769 26.3659 8.43267 26.5868 8.73926 26.5868C9.08416 26.5868 9.36377 26.3072 9.36377 25.9623V5.97803L9.3537 5.86577ZM16.6601 6.23982C15.3824 5.61827 14.4289 5.35352 13.0612 5.35352C12.1633 5.35352 11.4031 5.42113 10.777 5.55939C10.6671 5.58367 10.5611 5.61017 10.459 5.63892C10.127 5.73246 9.93374 6.07741 10.0273 6.40939C10.1208 6.74137 10.4658 6.93467 10.7977 6.84114C10.8764 6.81897 10.9593 6.79825 11.0464 6.77902C11.5746 6.66238 12.2474 6.60254 13.0612 6.60254C14.2048 6.60254 14.9902 6.81742 16.1036 7.35805L17.3225 7.97036C17.8939 8.24066 18.3575 8.40529 18.8801 8.50486C19.9201 8.70301 20.9963 8.57924 22.097 8.14175C22.236 8.08651 22.3959 8.16192 22.4564 8.32918C22.4709 8.36932 22.4785 8.41235 22.4785 8.45591V17.0225L22.4687 17.1077C22.4496 17.1898 22.4035 17.2608 22.3402 17.3056C21.6932 17.7633 20.5989 17.9403 19.0542 17.7932C17.9766 17.6905 17.158 17.4235 16.1301 16.9189L15.2572 16.4814L14.921 16.3236L14.7656 16.2562C14.1689 16.0047 13.6366 15.877 13.0586 15.877C12.1639 15.877 11.2787 16.031 10.4057 16.3378C10.0803 16.4522 9.90924 16.8087 10.0236 17.1341C10.138 17.4595 10.4945 17.6305 10.8199 17.5162C11.561 17.2557 12.3063 17.126 13.0586 17.126C13.4524 17.126 13.8263 17.2157 14.2805 17.4071L14.5577 17.5312C14.5908 17.5467 14.625 17.563 14.6604 17.5801L15.5796 18.04C16.732 18.6059 17.6883 18.9178 18.9357 19.0366C20.7502 19.2094 22.1265 18.9868 23.0616 18.3252C23.48 18.0292 23.7275 17.5412 23.7275 17.0225V8.45591L23.7167 8.26842C23.7022 8.14418 23.6735 8.02187 23.6309 7.90412C23.3338 7.08335 22.4395 6.66157 21.6357 6.98105L21.3418 7.08912C20.563 7.35204 19.8231 7.41304 19.1139 7.27791C18.6391 7.18744 18.2065 7.02019 17.5866 6.70953L16.6601 6.23982Z" fill="#213038"/>
</svg>
