<?xml version="1.0" encoding="UTF-8"?>
<svg width="24px" height="24px" viewBox="0 0 24 24" version="1.1" xmlns="http://www.w3.org/2000/svg" xmlns:xlink="http://www.w3.org/1999/xlink">
    <title>icon/24/guarantee</title>
    <g id="icon/24/guarantee" stroke="none" stroke-width="1" fill="none" fill-rule="evenodd">
        <path d="M15.7880051,4.42761927 L15.897644,4.61973784 L16.3624989,5.59333546 C16.4233143,5.7208258 16.5341942,5.81538203 16.6663961,5.85620322 L16.7480459,5.87408132 L17.7787144,6.01064971 C18.8255968,6.14936653 19.5758144,7.07398449 19.5157401,8.11245908 L19.4920937,8.32528285 L19.2967868,9.38658972 C19.2721515,9.52018966 19.3027784,9.65650231 19.3788741,9.76550329 L19.4443183,9.84166395 L20.1979976,10.5588977 C20.9995702,11.3217089 21.0319377,12.5905552 20.2703302,13.3933376 L20.1979976,13.4657819 L19.4443183,14.1830156 C19.3461002,14.2764842 19.2909027,14.4047706 19.288519,14.5378504 L19.2967868,14.6380899 L19.485597,15.6620301 C19.6772454,16.7013625 19.0310952,17.7016058 18.0258082,17.9653951 L17.7787144,18.0140299 C17.5049647,18.050303 17.2536416,17.8577902 17.2173685,17.5840406 C17.1810954,17.3102909 17.3736082,17.0589678 17.6473578,17.0226947 L17.6979236,17.0146735 C18.2036926,16.9211235 18.5504856,16.4623371 18.5168038,15.9599353 L18.5021762,15.8433686 L18.3133661,14.8194284 C18.2305334,14.3702169 18.3567755,13.9106298 18.6507838,13.5682292 L18.7549434,13.4586109 L19.5448635,12.7050802 C19.897405,12.3334793 19.9106838,11.7623577 19.594521,11.3758586 L19.5086227,11.2833025 L18.7549434,10.5660687 C18.4241637,10.2512844 18.2565604,9.80514001 18.293442,9.35519766 L18.3133661,9.20525119 L18.5102026,8.13055597 C18.5777453,7.61924136 18.2492915,7.1471372 17.7624174,7.02405245 L17.6473578,7.0019849 L16.6166894,6.86541651 C16.163986,6.8054312 15.7662256,6.54293797 15.5318533,6.15699206 L15.4599293,6.02387955 L14.9884675,5.03857558 C14.7432488,4.58555359 14.2010756,4.39718014 13.7351567,4.58418514 L13.6291604,4.63405406 L12.715183,5.13031552 C12.3186584,5.34561615 11.849367,5.36953845 11.436672,5.2020824 L11.284817,5.13031552 L10.3252044,4.61076583 C9.86131409,4.38879645 9.31212794,4.55559683 9.04477536,4.98151398 L8.98824868,5.08434325 L8.54007069,6.02387955 C8.34334565,6.43628339 7.97118302,6.73401848 7.53202806,6.83802956 L7.38331063,6.86541651 L6.32730839,7.00567205 L6.30207643,7.01000611 C5.79630742,7.1035561 5.44951437,7.56234245 5.48319623,8.06474425 L5.49782378,8.18131098 L5.68663393,9.20525119 C5.76946659,9.6544627 5.64322454,10.1140498 5.34921624,10.4564504 L5.24505657,10.5660687 L4.45513648,11.3195993 C4.10259503,11.6912003 4.08931624,12.2623219 4.40547898,12.648821 L4.49137734,12.7413771 L5.24505657,13.4586109 C5.57583628,13.7733952 5.74343957,14.2195396 5.70655798,14.6694819 L5.68663393,14.8194284 L5.48979739,15.8941236 C5.42225466,16.4054382 5.75070848,16.8775424 6.23758256,17.0006271 L6.35264218,17.0226947 L7.38331063,17.1592631 C7.83601395,17.2192484 8.2337744,17.4817416 8.46814675,17.8676875 L8.54007069,18.0008 L9.01153248,18.986104 C9.25675117,19.439126 9.79892438,19.6274994 10.2648433,19.4404944 L10.3708396,19.3906255 L11.284817,18.8943641 C11.6813416,18.6790634 12.150633,18.6551411 12.563328,18.8225972 L12.715183,18.8943641 L13.6747956,19.4139138 C14.1743698,19.6529577 14.7728669,19.4411207 15.0117513,18.9403363 C15.1306428,18.6910986 15.4290704,18.5854321 15.6783081,18.7043236 C15.9275458,18.8232151 16.0332123,19.1216427 15.9143209,19.3708804 C15.4602488,20.3227728 14.3538243,20.7520646 13.3870394,20.3781171 L13.185497,20.2871884 L12.2380152,19.7731762 C12.1192173,19.7086727 11.9808749,19.695772 11.8542592,19.7344741 L11.7619848,19.7731762 L10.8480075,20.2694377 C9.92161555,20.7724399 8.77450356,20.4683995 8.2119949,19.5970603 L8.11439201,19.4286003 L7.63750115,18.4313441 C7.57668566,18.3038538 7.46580578,18.2092976 7.33360391,18.1684764 L7.25195408,18.1505983 L6.22128563,18.0140299 C5.17440322,17.8753131 4.42418555,16.9506951 4.48425985,15.9122205 L4.50790628,15.6993967 L4.7032132,14.6380899 C4.72784845,14.5044899 4.69722161,14.3681773 4.62112587,14.2591763 L4.55568166,14.1830156 L3.80200244,13.4657819 C3.0004298,12.7029707 2.96806232,11.4341244 3.72966982,10.631342 L3.80200244,10.5588977 L4.55568166,9.84166395 C4.65389978,9.74819534 4.70909729,9.61990895 4.71148102,9.48682918 L4.7032132,9.38658972 L4.51440305,8.36264952 C4.31362852,7.27382505 5.03234273,6.22790116 6.1201957,6.02668551 L6.22128563,6.01064971 L7.25195408,5.87408132 C7.39153506,5.85558619 7.51554252,5.77919582 7.59523407,5.66571116 L7.63750115,5.59333546 L8.08567913,4.65379916 C8.5397512,3.70190682 9.64617569,3.27261496 10.6129606,3.64656247 L10.7568321,3.70871397 L10.8480075,3.75524189 L11.7619848,4.25150335 C11.8807827,4.3160069 12.0191251,4.32890761 12.1457408,4.29020548 L12.2380152,4.25150335 L13.1519925,3.75524189 C14.0783844,3.25223972 15.2254964,3.55628013 15.7880051,4.42761927 Z M16.0146085,9.64092274 C16.1908866,9.81173427 16.2144122,10.0808216 16.0825017,10.2777914 L16.0257439,10.3479418 L11.4370164,15.0835255 C11.3963405,15.1255031 11.3511583,15.1628657 11.3022893,15.1949354 C10.96587,15.4157067 10.5237839,15.3481657 10.2669299,15.0526901 L10.2016899,14.9664999 L8.58197385,12.4983181 C8.4304684,12.2674487 8.49480566,11.9574726 8.72567512,11.8059671 C8.93089243,11.6712956 9.19861375,11.7071665 9.36198094,11.8789474 L9.41802615,11.9496684 L10.896,14.203 L15.3075894,9.65205816 C15.4997524,9.45374527 15.8162956,9.44875977 16.0146085,9.64092274 Z" id="Shape" fill="#56707A" fill-rule="nonzero"></path>
    </g>
</svg>