<svg width="57" height="57" viewBox="0 0 57 57" fill="none" xmlns="http://www.w3.org/2000/svg">
<g clip-path="url(#clip0_29_1614)">
<circle cx="28.5" cy="28.5" r="28.5" fill="#4C12A1"/>
<rect x="11" y="11" width="35" height="35" fill="white" fill-opacity="0.01"/>
<path fill-rule="evenodd" clip-rule="evenodd" d="M30.4979 16.0286C29.2326 15.1059 27.5067 15.1602 26.2956 16.1914L16.6245 24.4261L16.4335 24.6015C15.7591 25.2681 15.375 26.1904 15.375 27.1575V38.0773L15.3823 38.31C15.4989 40.1565 16.9926 41.625 18.8289 41.625H38.1711L38.3987 41.6174C40.2047 41.4969 41.625 39.9534 41.625 38.0773C41.625 37.6958 41.3157 37.3865 40.9342 37.3865C40.5527 37.3865 40.2434 37.6958 40.2434 38.0773C40.2434 39.2787 39.3103 40.2434 38.1711 40.2434H18.8289L18.6411 40.2346C17.5889 40.1355 16.7566 39.2119 16.7566 38.0773V27.1575L16.7669 26.9416C16.8216 26.3707 17.0915 25.8431 17.5202 25.4781L27.1913 17.2433L27.3479 17.1222C28.0977 16.5972 29.0973 16.6376 29.8087 17.2433L39.4798 25.4781L39.633 25.6223C40.0212 26.0262 40.2434 26.5776 40.2434 27.1575V33.7836L40.2546 33.9078C40.313 34.2301 40.5951 34.4744 40.9342 34.4744C41.3157 34.4744 41.625 34.1652 41.625 33.7836V27.1575L41.6155 26.895C41.5465 25.9378 41.1018 25.0446 40.3755 24.4261L30.7044 16.1914L30.4979 16.0286ZM31.3643 22.6667C31.6932 22.6667 32.0177 22.7028 32.3334 22.7737L32.6461 22.8561L33.7841 23.2014L31.3078 25.7773L32.6014 27.0344L35.0887 24.447L35.4988 25.5217C35.691 26.0254 35.7908 26.5625 35.7908 27.1124C35.7908 29.5668 33.8098 31.5581 31.3643 31.5581C31.1574 31.5581 30.9523 31.5438 30.7502 31.5156L30.4492 31.4628L30.322 31.4313L23.7731 38.0152C22.9648 38.8277 21.7104 38.9263 20.793 38.308L20.6142 38.1748L20.4458 38.0225C19.5738 37.1459 19.5225 35.7718 20.2859 34.8428L20.4385 34.674L27.0364 28.0406L26.9921 27.8104L26.9684 27.6377L26.9514 27.4637L26.9378 27.1124C26.9378 24.6579 28.9187 22.6667 31.3643 22.6667ZM30.8237 24.176L30.7138 24.197C29.3879 24.4954 28.3961 25.6868 28.3961 27.1124C28.3961 27.3511 28.4238 27.5856 28.4779 27.8126L28.5408 28.037L28.6775 28.4602L21.4724 35.7026C21.1584 36.0182 21.1235 36.5067 21.3668 36.8599L21.4711 36.9854L21.5964 37.0898C21.9094 37.3063 22.3245 37.3021 22.6301 37.0801L22.7392 36.9867L29.9227 29.7664L30.3599 29.9246C30.6788 30.04 31.017 30.0998 31.3643 30.0998C32.7753 30.0998 33.9575 29.1083 34.2584 27.7787L34.3002 27.554L34.3222 27.3479L32.6383 29.1022L29.2514 25.8145L30.8237 24.176Z" fill="white"/>
</g>
<defs>
<clipPath id="clip0_29_1614">
<rect width="57" height="57" fill="white"/>
</clipPath>
</defs>
</svg>
