<svg height="24" viewBox="0 0 24 24" width="24" xmlns="http://www.w3.org/2000/svg"><path d="m2.31818182 14c-1.20649655 0-2.22589573-.7977278-2.31225843-1.8543597l-.00592339-.1456403v-.75c0-.581025.43045482-1.044287 1.00001967-1.1966001l-.00001967-7.06005784c0-1.57149005 1.01264276-2.89212578 2.34489914-2.98779497l.15510086-.00554709h14c1.3558168 0 2.418675 1.26243239 2.4955455 2.81318496l.0044545.1801571.000502 7.06019744c.5281469.1414343.9365677.5502673.9928623 1.0723984l.0066357.1240621v.75c0 1.0790553-.9669428 1.9236986-2.1548893 1.995106l-.1632925.004894zm15.18181818-13h-14c-.76111658 0-1.42986166.78626201-1.49483337 1.82698095l-.00516663.16636111v7.00665794h7.01263428c.27614237 0 .5.2238576.5.5 0 .2454599-.17687516.4496084-.41012437.4919443l-.08987563.0080557h-7.60354337c-.21428211 0-.36678076.1037135-.40155726.206373l-.00753365.043627v.75c0 .4788779.61067304.9421517 1.44608415.9949975l.15917901.0050025h15.78947364c.8619958 0 1.5233745-.4351045 1.5982011-.9104896l.0070621-.0895104v-.75c0-.1002202-.1257134-.2164613-.3212015-.2439556l-.0878894-.0060444h-7.5883456c-.2761424 0-.5-.2238576-.5-.5 0-.2454599.1768751-.4496084.4101243-.4919443l.0898757-.0080557h6.9974365v-7.00665794c0-1.06603073-.6306892-1.90559428-1.3806659-1.98688556zm-6.9561404 1.5c.5765078 0 1.0438597.46735188 1.0438597 1.04385965 0 .57650776-.4673519 1.04385965-1.0438597 1.04385965-.57650772 0-1.0438596-.46735189-1.0438596-1.04385965 0-.57650777.46735188-1.04385965 1.0438596-1.04385965z" fill="#56707a" transform="translate(1.5 4.5)"/></svg>