<svg width="34" height="24" viewBox="82 0 34 24" fill="none" xmlns="http://www.w3.org/2000/svg">
<path d="M82.5 3C82.5 1.61929 83.6193 0.5 85 0.5H113C114.381 0.5 115.5 1.61929 115.5 3V21C115.5 22.3807 114.381 23.5 113 23.5H85C83.6193 23.5 82.5 22.3807 82.5 21V3Z" fill="white" stroke="#CDD8DF"/>
<rect x="96.2861" y="7.29004" width="5.50077" height="10.1149" fill="#7673C0"/>
<path fill-rule="evenodd" clip-rule="evenodd" d="M96.6372 12.3466C96.6357 10.3732 97.5211 8.50854 99.0383 7.29007C96.4608 5.21741 92.7593 5.51931 90.5352 7.9836C88.3112 10.4479 88.3112 14.2472 90.5352 16.7115C92.7593 19.1758 96.4608 19.4777 99.0383 17.405C97.5206 16.1862 96.6351 14.3208 96.6372 12.3466Z" fill="#EB001B"/>
<path fill-rule="evenodd" clip-rule="evenodd" d="M108.61 16.1677V16.578H108.566V16.1677H108.484V16.0828H108.692V16.1677H108.61ZM109.013 16.0828V16.578L108.968 16.5815V16.2066L108.899 16.5285H108.852L108.784 16.2066V16.578H108.739V16.0828H108.803L108.877 16.4365L108.95 16.0828H109.013Z" fill="#00A1DF"/>
<path fill-rule="evenodd" clip-rule="evenodd" d="M109.209 12.3467C109.209 14.8095 107.834 17.056 105.669 18.1323C103.504 19.2085 100.929 18.9254 99.0366 17.4033C100.553 16.1838 101.439 14.3194 101.439 12.3458C101.439 10.3722 100.553 8.50783 99.0366 7.28832C100.929 5.76598 103.505 5.48306 105.67 6.55972C107.835 7.63639 109.209 9.88358 109.209 12.3467Z" fill="#00A1DF"/>
</svg>
