<svg width="34" height="24" viewBox="123 0 34 24" fill="none" xmlns="http://www.w3.org/2000/svg">
<path d="M123.5 3C123.5 1.61929 124.619 0.5 126 0.5H154C155.381 0.5 156.5 1.61929 156.5 3V21C156.5 22.3807 155.381 23.5 154 23.5H126C124.619 23.5 123.5 22.3807 123.5 21V3Z" fill="white" stroke="#CDD8DF"/>
<g opacity="0.01">
<rect x="129.697" y="5.21729" width="20.5108" height="13.5496" fill="white"/>
</g>
<rect x="137.248" y="7.57788" width="5.41065" height="8.82675" fill="#FF5F00"/>
<path fill-rule="evenodd" clip-rule="evenodd" d="M137.805 11.9921C137.803 10.27 138.595 8.64284 139.951 7.57955C137.647 5.77086 134.338 6.03431 132.35 8.18475C130.362 10.3352 130.362 13.6506 132.35 15.8011C134.338 17.9515 137.647 18.215 139.951 16.4063C138.595 15.3427 137.803 13.7148 137.805 11.9921Z" fill="#EB001B"/>
<path fill-rule="evenodd" clip-rule="evenodd" d="M148.518 15.3283V15.6951H148.481V15.3283H148.4V15.2524H148.604V15.3283H148.518ZM148.915 15.2524V15.6951H148.872V15.36L148.805 15.6477H148.759L148.692 15.36V15.6951H148.647V15.2524H148.709L148.781 15.5686L148.853 15.2524H148.915Z" fill="#F79E1B"/>
<path fill-rule="evenodd" clip-rule="evenodd" d="M149.044 11.9921C149.044 14.1412 147.816 16.1017 145.88 17.0408C143.945 17.98 141.643 17.733 139.951 16.4047C141.307 15.3405 142.098 13.7136 142.098 11.9913C142.098 10.2691 141.307 8.64215 139.951 7.57796C141.643 6.24967 143.945 6.00266 145.88 6.94181C147.816 7.88097 149.044 9.84142 149.044 11.9906V11.9921Z" fill="#F79E1B"/>
</svg>
