<svg height="24" viewBox="0 0 24 24" width="24" xmlns="http://www.w3.org/2000/svg"><path d="m4.73684211 0c0 .49705628.42415128.9.94736842.9.52321713 0 .94736842-.40294372.94736842-.9h2.84210526c1.04643429 0 1.89473689.80588745 1.89473689 1.8v14.4c0 .9941125-.8483026 1.8-1.89473689 1.8h-7.57894737c-1.04643426 0-1.89473684-.8058875-1.89473684-1.8v-14.4c0-.99411255.84830258-1.8 1.89473684-1.8zm-.67831579.94736842h-2.16378948c-.49564953 0-.88767066.33878672-.94114486.75526172l-.00622356.09736986v14.4c0 .4268821.3566176.7961604.83493425.8467365l.11243417.0058951h7.57894737c.49564953 0 .88767069-.3387867.94114489-.7552617l.0062235-.0973699v-14.4c0-.42688209-.3566176-.79616038-.83493421-.84673646l-.11243418-.00589512h-2.16473684l-.03791942.06348039c-.34011408.50610622-.92762426.83651961-1.58681742.83651961-.65919317 0-1.24670334-.33041339-1.58681743-.83651961zm3.52042105 13.87894738c.26160856 0 .47368421.2238576.47368421.5 0 .2454599-.16756594.4496084-.38853888.4919443l-.08514533.0080557h-3.78947369c-.26160856 0-.47368421-.2238576-.47368421-.5 0-.2454599.16756595-.4496084.38853888-.4919443l.08514533-.0080557z" fill="#56707a" transform="translate(6 3)"/></svg>