<svg width="57" height="57" viewBox="0 0 57 57" fill="none" xmlns="http://www.w3.org/2000/svg">
<g clip-path="url(#clip0_29_1595)">
<circle cx="28.5" cy="28.5" r="28.5" fill="#4C12A1"/>
<rect x="11" y="11" width="35" height="35" fill="white" fill-opacity="0.01"/>
<path fill-rule="evenodd" clip-rule="evenodd" d="M27.6056 22.7802C27.6056 19.0943 30.5799 16.1048 34.2508 16.1048C34.9096 16.1048 35.5564 16.2014 36.1756 16.3894L37.3137 16.7348L33.543 20.6563L36.241 23.2755L40.047 19.3159L40.4573 20.3904C40.7461 21.1469 40.896 21.9537 40.896 22.7802C40.896 26.466 37.9216 29.4555 34.2508 29.4555C33.733 29.4555 33.2229 29.3959 32.7281 29.2793L32.4508 29.205L21.7941 39.9153C20.5603 41.1553 18.5917 41.2192 17.2811 40.1024L17.0896 39.926C15.7779 38.6076 15.7779 36.4944 17.079 35.1867L27.8045 24.4057L27.7228 24.0344C27.671 23.7608 27.6362 23.4833 27.6187 23.2028L27.6056 22.7802ZM34.4866 17.5705L34.2508 17.5632C31.387 17.5632 29.0639 19.8981 29.0639 22.7802C29.0639 23.335 29.1498 23.8773 29.3165 24.3934L29.4531 24.8165L18.1128 36.2153C17.3777 36.9541 17.3777 38.1479 18.1115 38.8854L18.2649 39.0227C19.0062 39.6172 20.0814 39.5691 20.7603 38.8867L32.0574 27.5325L32.4945 27.6907C33.0525 27.8927 33.644 27.9972 34.2508 27.9972C37.1146 27.9972 39.4376 25.6623 39.4376 22.7802C39.4376 22.6506 39.4329 22.5217 39.4236 22.3936L39.391 22.1015L36.2786 25.3435L31.4871 20.6928L34.4866 17.5705Z" fill="white"/>
</g>
<defs>
<clipPath id="clip0_29_1595">
<rect width="57" height="57" fill="white"/>
</clipPath>
</defs>
</svg>
