<svg width="59" height="57" viewBox="0 0 59 57" fill="none" xmlns="http://www.w3.org/2000/svg">
<circle cx="29.5" cy="28.5" r="28.5" fill="#4C12A1"/>
<rect x="12" y="11" width="35" height="35" fill="white" fill-opacity="0.01"/>
<path fill-rule="evenodd" clip-rule="evenodd" d="M29.4996 14.6458C31.8664 14.6458 33.816 16.4322 34.0736 18.7301L34.0952 18.9875L34.1025 19.2487V23.8971L34.0908 24.0282C34.029 24.3684 33.7313 24.6263 33.3733 24.6263C33.0601 24.6263 32.793 24.4288 32.6898 24.1516L32.6559 24.0282L32.6442 23.8971L32.6447 22.2102H26.3563L26.3551 23.8971L26.3434 24.0282C26.2816 24.3684 25.9839 24.6263 25.6259 24.6263C25.3127 24.6263 25.0456 24.4288 24.9424 24.1516L24.9085 24.0282L24.8968 23.8971L24.898 22.2102L23.4428 22.2109L23.2386 22.2197C22.3676 22.2945 21.6138 22.8438 21.2698 23.6345L21.1926 23.8371L21.1337 24.0479L17.9155 37.9932L17.8818 38.1691C17.8639 38.2872 17.8548 38.4065 17.8548 38.526C17.8548 39.693 18.6983 40.663 19.8089 40.8595L20.0201 40.8871L20.2246 40.8958H38.7747L38.9537 40.8891C39.0727 40.88 39.191 40.862 39.3075 40.8351C40.4411 40.5735 41.1954 39.5391 41.1423 38.4168L41.1228 38.2055L41.0838 37.9932L37.8656 24.0479L37.8067 23.8371C37.4892 22.8744 36.5864 22.2109 35.5565 22.2109C35.1538 22.2109 34.8273 21.8845 34.8273 21.4818C34.8273 21.0791 35.1538 20.7526 35.5565 20.7526C37.1649 20.7526 38.5812 21.7542 39.1371 23.2258L39.2216 23.4753L39.2866 23.7199L42.5047 37.6652L42.5518 37.9028C42.8802 39.8811 41.6163 41.799 39.6354 42.2561L39.3512 42.3105L39.0639 42.3432L38.7747 42.3542H20.2246L19.9825 42.3466C17.9811 42.2217 16.3965 40.5589 16.3965 38.526L16.4074 38.2368L16.4401 37.9495L16.4945 37.6652L19.7127 23.7199L19.7815 23.4626C20.219 22.0274 21.4554 20.9863 22.9277 20.7872L23.1898 20.7609L23.4428 20.7526L24.898 20.7519L24.8968 19.2487L24.9041 18.9875C25.0395 16.5669 27.0452 14.6458 29.4996 14.6458ZM30.5003 25.327C30.7693 25.5632 30.8229 25.9534 30.6449 26.2498L30.5672 26.356L30.1455 26.8355C30.1853 26.8288 30.2262 26.8253 30.268 26.8253C33.4897 26.8253 36.1013 29.437 36.1013 32.6586C36.1013 35.8803 33.4897 38.4919 30.268 38.4919C27.0463 38.4919 24.4347 35.8803 24.4347 32.6586C24.4347 32.2559 24.7611 31.9294 25.1638 31.9294C25.5665 31.9294 25.893 32.2559 25.893 32.6586C25.893 35.0749 27.8518 37.0336 30.268 37.0336C32.6843 37.0336 34.643 35.0749 34.643 32.6586C34.643 30.2424 32.6843 28.2836 30.268 28.2836L30.1805 28.2754L30.5672 28.7167C30.8329 29.0194 30.8029 29.4801 30.5003 29.7457C30.2312 29.9819 29.8373 29.9844 29.5665 29.7695L29.4712 29.6788L28.4182 28.4792C27.9842 27.9848 27.9481 27.2656 28.3097 26.7337L28.4182 26.5936L29.4712 25.394C29.7369 25.0913 30.1976 25.0613 30.5003 25.327ZM26.3863 18.8038C26.6024 17.2778 27.914 16.1042 29.4996 16.1042C31.1608 16.1042 32.5211 17.3923 32.6363 19.0241L32.6442 19.2487L32.6447 20.7519H26.3563L26.3551 19.2487L26.363 19.0241L26.3863 18.8038Z" fill="white"/>
</svg>
