<svg height="24" viewBox="0 0 24 24" width="24" xmlns="http://www.w3.org/2000/svg"><path d="m11.9285714 0c1.5385075 0 2.7857143 1.24720677 2.7857143 2.78571429 0 1.53850751-1.2472068 2.78571428-2.7857143 2.78571428-.9274877 0-1.7491089-.45326851-2.2554326-1.15037461l-.04664856.05286081-.07086396.05586433-4.25289252 2.77504519c.17228143.36217645.26869481.7674168.26869481 1.19517571 0 .56433047-.16780551 1.08946786-.45624098 1.5282366l4.32231115 2.937792c.45776155-.9117449 1.40134566-1.5374572 2.49107266-1.5374572 1.5385075 0 2.7857143 1.2472068 2.7857143 2.7857143s-1.2472068 2.7857143-2.7857143 2.7857143-2.78571426-1.2472068-2.78571426-2.7857143c0-.1044097.00574409-.2074778.01693349-.3089055-.05548761-.0040463-.1117342-.0176819-.16527544-.0414206l-.0788634-.043853-4.50152417-3.0596594c-.45799651.3305172-1.02046179.5252671-1.62841333.5252671-1.53850752 0-2.78571429-1.2472068-2.78571429-2.7857143 0-1.53850752 1.24720677-2.78571429 2.78571429-2.78571429.75034388 0 1.43139896.29666063 1.93227397.7790906l4.2911262-2.8010486c.08037185-.05244981.17023217-.07880415.25961297-.08115852-.08231281-.26059668-.12587029-.5379391-.12587029-.8254549 0-1.53850752 1.24720676-2.78571429 2.78571426-2.78571429zm0 12.4285714c-.9862227 0-1.7857143.7994915-1.7857143 1.7857143s.7994916 1.7857143 1.7857143 1.7857143c.9862228 0 1.7857143-.7994915 1.7857143-1.7857143s-.7994915-1.7857143-1.7857143-1.7857143zm-9.14285711-5.71428569c-.98622277 0-1.78571429.79949152-1.78571429 1.78571429s.79949152 1.7857143 1.78571429 1.7857143c.98622276 0 1.78571428-.79949153 1.78571428-1.7857143s-.79949152-1.78571429-1.78571428-1.78571429zm9.14285711-5.71428571c-.9862227 0-1.7857143.79949152-1.7857143 1.78571429 0 .98622276.7994916 1.78571428 1.7857143 1.78571428.9862228 0 1.7857143-.79949152 1.7857143-1.78571428 0-.98622277-.7994915-1.78571429-1.7857143-1.78571429z" fill="#56707a" transform="translate(4.5 3.5)"/></svg>