<svg height="24" viewBox="0 0 24 24" width="24" xmlns="http://www.w3.org/2000/svg"><path d="m5.43620923 8.5170772c.17116722-.05952996.36112465-.02172569.49650508.09881169.59013795.52543546 1.54983564.82742779 2.58262138.82164685.27613805-.00154566.50124432.2212093.50278892.49753714.0015446.27632782-.22105737.50158882-.49719543.50313452-1.14238652.0063944-2.23157467-.3013459-3.01491982-.88151234-2.57480767.98580464-4.27751515 3.02519434-4.48468783 5.44261764h14.95735697c-.2139727-2.49677-2.0232731-4.5902736-4.7412209-5.53632848-.2608146-.09078356-.3987026-.37595553-.3079814-.63694942s.3756973-.39897662.6365119-.30819306c3.2788259 1.14128362 5.4340119 3.81413596 5.4340119 6.98181466 0 .2763321-.2238576.5003436-.5.5003436h-16c-.27614237 0-.5-.2240115-.5-.5003436 0-3.1684511 2.15624174-5.8418449 5.43620923-6.9825792zm3.04575752-8.5170772c2.25683565 0 4.08636235 1.83078415 4.08636235 4.08917085s-1.8295267 4.08917085-4.08636235 4.08917085c-2.25683561 0-4.08636235-1.83078415-4.08636235-4.08917085s1.82952674-4.08917085 4.08636235-4.08917085zm0 1.00068729c-1.70455086 0-3.08636235 1.38276119-3.08636235 3.08848356 0 1.70572238 1.38181149 3.08848357 3.08636235 3.08848357 1.70455085 0 3.08636235-1.38276119 3.08636235-3.08848357 0-1.70572237-1.3818115-3.08848356-3.08636235-3.08848356z" fill="#56707a" transform="translate(4 4)"/></svg>