<svg width="34" height="24" viewBox="41 0 34 24" fill="none" xmlns="http://www.w3.org/2000/svg">
<path d="M41.5 3C41.5 1.61929 42.6193 0.5 44 0.5H72C73.3807 0.5 74.5 1.61929 74.5 3V21C74.5 22.3807 73.3807 23.5 72 23.5H44C42.6193 23.5 41.5 22.3807 41.5 21V3Z" fill="white" stroke="#CDD8DF"/>
<path fill-rule="evenodd" clip-rule="evenodd" d="M56.4661 15.5184H54.6426L55.7831 8.5625H57.6065L56.4661 15.5184Z" fill="#0742A6"/>
<path fill-rule="evenodd" clip-rule="evenodd" d="M63.0764 8.73266C62.7167 8.59192 62.1462 8.43652 61.4409 8.43652C59.6401 8.43652 58.3721 9.38366 58.3643 10.7378C58.3493 11.7368 59.2722 12.2917 59.9624 12.6249C60.6679 12.9653 60.9077 13.1874 60.9077 13.4909C60.9005 13.9569 60.3376 14.1717 59.8126 14.1717C59.0846 14.1717 58.6945 14.0609 58.1017 13.8017L57.8616 13.6905L57.6064 15.252C58.0341 15.4441 58.8221 15.6147 59.6401 15.6222C61.5534 15.6222 62.7991 14.6897 62.8138 13.2467C62.8211 12.4548 62.3338 11.8481 61.2832 11.3523C60.6454 11.034 60.2549 10.8194 60.2549 10.4938C60.2623 10.1977 60.5852 9.8945 61.3052 9.8945C61.898 9.87965 62.3335 10.0202 62.6635 10.1608L62.8284 10.2347L63.0764 8.73266Z" fill="#0742A6"/>
<path fill-rule="evenodd" clip-rule="evenodd" d="M66.3403 8.5625H67.7508L69.2219 15.5183H67.5335C67.5335 15.5183 67.3683 14.7191 67.3159 14.4749H64.9747C64.907 14.6598 64.592 15.5183 64.592 15.5183H62.6787L65.3873 9.13963C65.5749 8.68819 65.9054 8.5625 66.3403 8.5625ZM66.2279 11.108C66.2279 11.108 65.6501 12.6546 65.4999 13.0542H67.0156C66.9406 12.7064 66.5953 11.0414 66.5953 11.0414L66.4679 10.442C66.4142 10.5964 66.3366 10.8085 66.2842 10.9517C66.2488 11.0487 66.2249 11.114 66.2279 11.108Z" fill="#0742A6"/>
<path fill-rule="evenodd" clip-rule="evenodd" d="M53.1197 8.5625L51.3339 13.3057L51.1388 12.3438C50.8086 11.2338 49.7732 10.0278 48.6177 9.4281L50.2534 15.511H52.1817L55.0479 8.5625H53.1197V8.5625Z" fill="#0742A6"/>
<path fill-rule="evenodd" clip-rule="evenodd" d="M49.6757 8.5625H46.7419L46.7119 8.70305C49.0005 9.28028 50.5161 10.6717 51.1388 12.3441L50.5011 9.14721C50.3961 8.70295 50.0734 8.57715 49.6757 8.5625Z" fill="#0742A6"/>
</svg>
